<mxfile host="app.diagrams.net" agent="Mozilla/5.0 (Windows NT 10.0; Win64; x64) AppleWebKit/537.36 (KHTML, like Gecko) Chrome/136.0.0.0 Safari/537.36 Edg/136.0.0.0" version="26.2.12">
  <diagram name="Page-1" id="Ic2PeSE9ZdauLPG91S1T">
    <mxGraphModel dx="629" dy="377" grid="1" gridSize="10" guides="1" tooltips="1" connect="1" arrows="1" fold="1" page="1" pageScale="1" pageWidth="850" pageHeight="1100" math="0" shadow="0">
      <root>
        <mxCell id="0" />
        <mxCell id="1" parent="0" />
        <mxCell id="5c_e4VPhJMNwGgXiXrA9-5" value="Voorpagina" style="swimlane;whiteSpace=wrap;html=1;" vertex="1" parent="1">
          <mxGeometry x="80" y="150" width="710" height="490" as="geometry" />
        </mxCell>
        <mxCell id="5c_e4VPhJMNwGgXiXrA9-3" value="komende uren voorspelling " style="swimlane;whiteSpace=wrap;html=1;" vertex="1" parent="5c_e4VPhJMNwGgXiXrA9-5">
          <mxGeometry x="260" y="60" width="200" height="200" as="geometry" />
        </mxCell>
        <mxCell id="5c_e4VPhJMNwGgXiXrA9-1" value="huidig weer component " style="swimlane;whiteSpace=wrap;html=1;" vertex="1" parent="5c_e4VPhJMNwGgXiXrA9-5">
          <mxGeometry x="30" y="60" width="200" height="200" as="geometry" />
        </mxCell>
        <mxCell id="5c_e4VPhJMNwGgXiXrA9-4" value=" komende dagen voorspelling " style="swimlane;whiteSpace=wrap;html=1;" vertex="1" parent="5c_e4VPhJMNwGgXiXrA9-5">
          <mxGeometry x="490" y="60" width="200" height="200" as="geometry" />
        </mxCell>
        <mxCell id="5c_e4VPhJMNwGgXiXrA9-6" value="mock api / api call" style="swimlane;whiteSpace=wrap;html=1;" vertex="1" parent="5c_e4VPhJMNwGgXiXrA9-5">
          <mxGeometry x="30" y="270" width="200" height="200" as="geometry" />
        </mxCell>
        <mxCell id="5c_e4VPhJMNwGgXiXrA9-7" value="design / css" style="swimlane;whiteSpace=wrap;html=1;" vertex="1" parent="5c_e4VPhJMNwGgXiXrA9-5">
          <mxGeometry x="260" y="270" width="200" height="200" as="geometry" />
        </mxCell>
      </root>
    </mxGraphModel>
  </diagram>
</mxfile>
